<svg width="33" height="33" viewBox="0 0 33 33" fill="none" xmlns="http://www.w3.org/2000/svg">
<path d="M19.8801 2.30099H19.3801V2.32593L19.3826 2.35074L19.8801 2.30099ZM19.8801 2.30097H20.3801V2.27604L20.3776 2.25122L19.8801 2.30097ZM19.9956 3.45551L20.4931 3.40576V3.40576L19.9956 3.45551ZM20.7934 6.1348L20.6021 6.59674L20.7934 6.1348ZM23.2521 4.80442L23.5687 5.19139H23.5687L23.2521 4.80442ZM24.1501 4.0697L23.8335 3.68272L23.8335 3.68272L24.1501 4.0697ZM26.8308 4.2034L27.1843 3.84985L26.8308 4.2034ZM28.7966 6.16919L28.443 6.52275V6.52275L28.7966 6.16919ZM29.7281 7.46641L30.2275 7.4415L30.2275 7.4415L29.7281 7.46641ZM28.9303 8.84988L28.5433 8.53327L28.9303 8.84988ZM28.1955 9.7479L27.8086 9.43128L28.1955 9.7479ZM29.5444 13.0044L29.4947 13.502L29.5444 13.0044ZM30.699 13.1199L30.7488 12.6224L30.699 13.1199ZM32.2415 13.534L32.6122 13.1985V13.1985L32.2415 13.534ZM32.2415 19.466L32.6122 19.8015L32.2415 19.466ZM30.699 19.8801V20.3801H30.724L30.7488 20.3776L30.699 19.8801ZM30.699 19.8801V19.3801H30.6741L30.6493 19.3826L30.699 19.8801ZM29.5449 19.9955L29.5947 20.493L29.5449 19.9955ZM28.196 23.2521L28.583 22.9354L28.196 23.2521ZM28.9302 24.1494L28.5433 24.466V24.466L28.9302 24.1494ZM29.7281 25.5329L30.2275 25.5578L30.2275 25.5578L29.7281 25.5329ZM28.7965 26.8301L29.1501 27.1837L28.7965 26.8301ZM26.8307 28.7959L26.4772 28.4423L26.8307 28.7959ZM24.1501 28.9296L24.4667 28.5426H24.4667L24.1501 28.9296ZM23.2522 28.1949L22.9355 28.5819L23.2522 28.1949ZM20.7935 26.8646L20.6021 26.4026L20.6021 26.4026L20.7935 26.8646ZM19.9956 29.5439L20.4931 29.5936L19.9956 29.5439ZM19.8801 30.699L19.3826 30.6493L19.3801 30.6741V30.699H19.8801ZM19.8801 30.699L20.3776 30.7488L20.3801 30.724V30.699H19.8801ZM19.466 32.2415L19.8015 32.6122L19.466 32.2415ZM13.534 32.2415L13.1985 32.6122H13.1985L13.534 32.2415ZM13.1199 30.699L12.6224 30.7488L13.1199 30.699ZM13.0044 29.5444L13.502 29.4947L13.0044 29.5444ZM9.74789 28.1955L10.0645 28.5825H10.0645L9.74789 28.1955ZM8.84984 28.9303L8.53322 28.5433H8.53322L8.84984 28.9303ZM6.16915 28.7966L6.5227 28.4431H6.5227L6.16915 28.7966ZM4.20336 26.8308L4.55691 26.4773H4.55691L4.20336 26.8308ZM3.27178 25.5336L2.7724 25.5585L3.27178 25.5336ZM4.06965 24.1501L3.68268 23.8335H3.68268L4.06965 24.1501ZM4.80441 23.2521L4.41743 22.9355V22.9355L4.80441 23.2521ZM3.4555 19.9955L3.50525 19.498H3.50525L3.4555 19.9955ZM2.30099 19.8801L2.35074 19.3826L2.32593 19.3801H2.30099V19.8801ZM2.30097 19.8801L2.25122 20.3776L2.27603 20.3801H2.30097V19.8801ZM0.758547 19.466L1.12927 19.1305H1.12927L0.758547 19.466ZM0.758547 13.534L0.387822 13.1985H0.387821L0.758547 13.534ZM2.30099 13.1199L2.25124 12.6224H2.25124L2.30099 13.1199ZM3.45601 13.0044L3.50576 13.5019H3.50576L3.45601 13.0044ZM4.80492 9.74785L5.1919 9.43123L4.80492 9.74785ZM4.06963 8.84916L4.45661 8.53254L4.06963 8.84916ZM4.20333 6.16847L4.55688 6.52202L4.20333 6.16847ZM6.16912 4.20268L6.52267 4.55623L6.16912 4.20268ZM8.84981 4.06898L8.53319 4.45596L8.84981 4.06898ZM9.74796 4.80382L10.0646 4.41685L9.74796 4.80382ZM13.0045 3.45492L12.507 3.40517V3.40517L13.0045 3.45492ZM13.1199 2.30099L13.6174 2.35075V2.35075L13.1199 2.30099ZM13.534 0.758547L13.1985 0.387821V0.387822L13.534 0.758547ZM19.466 0.758548L19.1305 1.12927V1.12927L19.466 0.758548ZM20.3801 2.30099V2.30097H19.3801V2.30099H20.3801ZM20.4931 3.40576L20.3776 2.25124L19.3826 2.35074L19.498 3.50526L20.4931 3.40576ZM20.9847 5.67286C20.9335 5.65163 20.8319 5.59171 20.7333 5.19987C20.6346 4.80733 20.5764 4.23943 20.4931 3.40576L19.498 3.50526C19.578 4.30513 19.6424 4.96238 19.7635 5.44385C19.8848 5.92602 20.1005 6.38899 20.6021 6.59674L20.9847 5.67286ZM22.9355 4.41744C22.287 4.94798 21.8444 5.30845 21.497 5.51619C21.1502 5.72356 21.036 5.69409 20.9847 5.67286L20.6021 6.59674C21.1036 6.80449 21.5835 6.62962 22.0102 6.37444C22.4363 6.11964 22.9466 5.70043 23.5687 5.19139L22.9355 4.41744ZM23.8335 3.68272L22.9355 4.41744L23.5687 5.19139L24.4667 4.45668L23.8335 3.68272ZM25.5585 2.77245C25.2249 2.75581 24.9429 2.8727 24.6826 3.03503C24.4344 3.1898 24.156 3.41883 23.8335 3.68272L24.4667 4.45668C24.8099 4.17586 25.0309 3.99636 25.2117 3.88358C25.3805 3.77835 25.4574 3.76865 25.5086 3.77121L25.5585 2.77245ZM27.1843 3.84985C26.8897 3.55518 26.6354 3.29958 26.4038 3.12087C26.161 2.93344 25.892 2.78909 25.5585 2.77245L25.5086 3.77121C25.5599 3.77376 25.6355 3.79107 25.7929 3.91256C25.9617 4.04278 26.1636 4.24338 26.4772 4.55696L27.1843 3.84985ZM29.1501 5.81564L27.1843 3.84985L26.4772 4.55696L28.443 6.52275L29.1501 5.81564ZM30.2275 7.4415C30.2109 7.10792 30.0665 6.83901 29.8791 6.59612C29.7004 6.36454 29.4448 6.11032 29.1501 5.81564L28.443 6.52275C28.7566 6.83633 28.9572 7.0383 29.0874 7.20705C29.2089 7.36449 29.2262 7.44007 29.2288 7.49132L30.2275 7.4415ZM29.3172 9.1665C29.5811 8.84397 29.8102 8.56558 29.9649 8.31736C30.1273 8.05703 30.2442 7.77509 30.2275 7.4415L29.2288 7.49132C29.2313 7.54257 29.2216 7.61949 29.1164 7.78825C29.0036 7.96911 28.8241 8.19004 28.5433 8.53327L29.3172 9.1665ZM28.5825 10.0645L29.3172 9.1665L28.5433 8.53327L27.8086 9.43128L28.5825 10.0645ZM27.3271 12.0153C27.3059 11.964 27.2764 11.8498 27.4838 11.503C27.6915 11.1556 28.052 10.713 28.5825 10.0645L27.8086 9.43128C27.2995 10.0534 26.8803 10.5637 26.6255 10.9898C26.3703 11.4165 26.1955 11.8964 26.4032 12.3979L27.3271 12.0153ZM29.5942 12.5069C28.7605 12.4236 28.1926 12.3654 27.8001 12.2667C27.4082 12.1681 27.3483 12.0665 27.3271 12.0153L26.4032 12.3979C26.611 12.8995 27.0739 13.1152 27.5561 13.2365C28.0376 13.3576 28.6948 13.422 29.4947 13.502L29.5942 12.5069ZM30.7488 12.6224L29.5942 12.5069L29.4947 13.502L30.6493 13.6174L30.7488 12.6224ZM32.6122 13.1985C32.3881 12.9508 32.1061 12.8341 31.8072 12.7648C31.5222 12.6988 31.1634 12.6638 30.7488 12.6224L30.6493 13.6174C31.0905 13.6615 31.3737 13.6908 31.5813 13.739C31.775 13.7839 31.8363 13.8314 31.8707 13.8695L32.6122 13.1985ZM33 15.11C33 14.6932 33.001 14.3327 32.9636 14.0426C32.9244 13.7383 32.8363 13.4461 32.6122 13.1985L31.8707 13.8695C31.9052 13.9075 31.9464 13.9732 31.9718 14.1704C31.999 14.3819 32 14.6665 32 15.11H33ZM33 17.89V15.11H32V17.89H33ZM32.6122 19.8015C32.8363 19.5539 32.9244 19.2617 32.9636 18.9574C33.001 18.6673 33 18.3068 33 17.89H32C32 18.3335 31.999 18.6181 31.9718 18.8295C31.9464 19.0268 31.9052 19.0925 31.8707 19.1305L32.6122 19.8015ZM30.7488 20.3776C31.1634 20.3362 31.5222 20.3012 31.8072 20.2352C32.1061 20.1659 32.3881 20.0492 32.6122 19.8015L31.8707 19.1305C31.8363 19.1686 31.775 19.2161 31.5813 19.261C31.3737 19.3092 31.0905 19.3385 30.6493 19.3826L30.7488 20.3776ZM30.699 20.3801H30.699V19.3801H30.699V20.3801ZM29.5947 20.493L30.7488 20.3776L30.6493 19.3826L29.4952 19.498L29.5947 20.493ZM27.3276 20.9847C27.3488 20.9334 27.4087 20.8318 27.8006 20.7333C28.1931 20.6345 28.761 20.5764 29.5947 20.493L29.4952 19.498C28.6953 19.578 28.0381 19.6424 27.5566 19.7635C27.0744 19.8848 26.6115 20.1005 26.4037 20.602L27.3276 20.9847ZM28.583 22.9354C28.0525 22.287 27.692 21.8443 27.4843 21.4969C27.2769 21.1501 27.3064 21.036 27.3276 20.9847L26.4037 20.602C26.196 21.1036 26.3708 21.5834 26.626 22.0101C26.8808 22.4362 27.3 22.9465 27.8091 23.5687L28.583 22.9354ZM29.3172 23.8328L28.583 22.9354L27.8091 23.5687L28.5433 24.466L29.3172 23.8328ZM30.2275 25.5578C30.2441 25.2242 30.1272 24.9423 29.9649 24.6819C29.8101 24.4337 29.5811 24.1553 29.3172 23.8328L28.5433 24.466C28.8241 24.8093 29.0036 25.0302 29.1164 25.211C29.2216 25.3798 29.2313 25.4567 29.2287 25.508L30.2275 25.5578ZM29.1501 27.1837C29.4448 26.889 29.7004 26.6348 29.8791 26.4032C30.0665 26.1603 30.2109 25.8914 30.2275 25.5578L29.2287 25.508C29.2262 25.5592 29.2089 25.6348 29.0874 25.7922C28.9572 25.961 28.7566 26.163 28.443 26.4765L29.1501 27.1837ZM27.1843 29.1494L29.1501 27.1837L28.443 26.4765L26.4772 28.4423L27.1843 29.1494ZM25.5584 30.2268C25.892 30.2102 26.1609 30.0658 26.4038 29.8784C26.6354 29.6997 26.8896 29.4441 27.1843 29.1494L26.4772 28.4423C26.1636 28.7559 25.9616 28.9565 25.7929 29.0867C25.6354 29.2082 25.5599 29.2255 25.5086 29.2281L25.5584 30.2268ZM23.8334 29.3166C24.156 29.5805 24.4344 29.8095 24.6826 29.9643C24.9429 30.1266 25.2248 30.2435 25.5584 30.2268L25.5086 29.2281C25.4574 29.2306 25.3805 29.2209 25.2117 29.1157C25.0308 29.0029 24.8099 28.8234 24.4667 28.5426L23.8334 29.3166ZM22.9355 28.5819L23.8334 29.3166L24.4667 28.5426L23.5688 27.808L22.9355 28.5819ZM20.9848 27.3265C21.0361 27.3053 21.1503 27.2758 21.497 27.4832C21.8444 27.6909 22.2871 28.0514 22.9355 28.5819L23.5688 27.808C22.9466 27.2989 22.4364 26.8797 22.0103 26.6249C21.5835 26.3697 21.1037 26.1949 20.6021 26.4026L20.9848 27.3265ZM20.4931 29.5936C20.5765 28.7599 20.6346 28.192 20.7334 27.7995C20.832 27.4077 20.9335 27.3477 20.9848 27.3265L20.6021 26.4026C20.1006 26.6104 19.8849 27.0733 19.7636 27.5555C19.6425 28.037 19.5781 28.6942 19.4981 29.4941L20.4931 29.5936ZM20.3776 30.7488L20.4931 29.5936L19.4981 29.4941L19.3826 30.6493L20.3776 30.7488ZM20.3801 30.699V30.699H19.3801V30.699H20.3801ZM19.8015 32.6122C20.0492 32.3881 20.1659 32.1061 20.2352 31.8072C20.3012 31.5222 20.3362 31.1634 20.3776 30.7488L19.3826 30.6493C19.3385 31.0905 19.3092 31.3737 19.261 31.5813C19.2161 31.775 19.1686 31.8363 19.1305 31.8707L19.8015 32.6122ZM17.89 33C18.3068 33 18.6673 33.001 18.9574 32.9636C19.2617 32.9244 19.5539 32.8363 19.8015 32.6122L19.1305 31.8707C19.0925 31.9052 19.0268 31.9464 18.8296 31.9718C18.6182 31.999 18.3335 32 17.89 32V33ZM15.11 33H17.89V32H15.11V33ZM13.1985 32.6122C13.4461 32.8363 13.7383 32.9244 14.0426 32.9636C14.3327 33.001 14.6932 33 15.11 33V32C14.6665 32 14.3819 31.999 14.1705 31.9718C13.9732 31.9464 13.9075 31.9052 13.8695 31.8707L13.1985 32.6122ZM12.6224 30.7488C12.6638 31.1634 12.6988 31.5222 12.7648 31.8072C12.8341 32.1061 12.9508 32.3881 13.1985 32.6122L13.8695 31.8707C13.8314 31.8363 13.7839 31.775 13.739 31.5813C13.6908 31.3737 13.6615 31.0905 13.6174 30.6493L12.6224 30.7488ZM12.5069 29.5942L12.6224 30.7488L13.6174 30.6493L13.502 29.4947L12.5069 29.5942ZM12.0153 27.3271C12.0665 27.3483 12.1681 27.4082 12.2667 27.8001C12.3654 28.1926 12.4236 28.7605 12.5069 29.5942L13.502 29.4947C13.422 28.6948 13.3576 28.0376 13.2365 27.5561C13.1152 27.0739 12.8995 26.611 12.3979 26.4032L12.0153 27.3271ZM10.0645 28.5825C10.713 28.052 11.1556 27.6915 11.503 27.4838C11.8498 27.2764 11.964 27.3059 12.0153 27.3271L12.3979 26.4032C11.8964 26.1955 11.4165 26.3703 10.9898 26.6255C10.5637 26.8803 10.0534 27.2995 9.43128 27.8086L10.0645 28.5825ZM9.16645 29.3173L10.0645 28.5825L9.43128 27.8086L8.53322 28.5433L9.16645 29.3173ZM7.44146 30.2276C7.77504 30.2442 8.05698 30.1273 8.31731 29.965C8.56553 29.8102 8.84392 29.5812 9.16645 29.3173L8.53322 28.5433C8.18999 28.8242 7.96906 29.0037 7.7882 29.1164C7.61944 29.2217 7.54252 29.2314 7.49127 29.2288L7.44146 30.2276ZM5.81559 29.1502C6.11027 29.4448 6.36449 29.7004 6.59608 29.8791C6.83896 30.0666 7.10787 30.2109 7.44146 30.2276L7.49127 29.2288C7.44002 29.2263 7.36445 29.209 7.207 29.0875C7.03825 28.9572 6.83628 28.7566 6.5227 28.4431L5.81559 29.1502ZM3.8498 27.1844L5.81559 29.1502L6.5227 28.4431L4.55691 26.4773L3.8498 27.1844ZM2.7724 25.5585C2.78904 25.8921 2.9334 26.161 3.12083 26.4039C3.29953 26.6355 3.55513 26.8897 3.8498 27.1844L4.55691 26.4773C4.24333 26.1637 4.04273 25.9617 3.91252 25.793C3.79102 25.6355 3.77372 25.5599 3.77116 25.5087L2.7724 25.5585ZM3.68268 23.8335C3.41878 24.156 3.18975 24.4344 3.03498 24.6827C2.87265 24.943 2.75576 25.2249 2.7724 25.5585L3.77116 25.5087C3.7686 25.4575 3.7783 25.3805 3.88353 25.2118C3.99631 25.0309 4.17581 24.81 4.45663 24.4667L3.68268 23.8335ZM4.41743 22.9355L3.68268 23.8335L4.45663 24.4667L5.19139 23.5687L4.41743 22.9355ZM5.67285 20.9847C5.69408 21.036 5.72355 21.1502 5.51618 21.497C5.30844 21.8444 4.94798 22.287 4.41743 22.9355L5.19139 23.5687C5.70042 22.9466 6.11964 22.4363 6.37444 22.0102C6.62961 21.5835 6.80448 21.1036 6.59673 20.6021L5.67285 20.9847ZM3.40575 20.4931C4.23942 20.5764 4.80732 20.6346 5.19987 20.7333C5.5917 20.8319 5.65162 20.9335 5.67285 20.9847L6.59673 20.6021C6.38898 20.1005 5.92602 19.8848 5.44384 19.7635C4.96237 19.6424 4.30512 19.578 3.50525 19.498L3.40575 20.4931ZM2.25124 20.3776L3.40575 20.4931L3.50525 19.498L2.35074 19.3826L2.25124 20.3776ZM2.30097 20.3801H2.30099V19.3801H2.30097V20.3801ZM0.387821 19.8015C0.611936 20.0492 0.893941 20.1659 1.19281 20.2352C1.47776 20.3012 1.83656 20.3361 2.25122 20.3776L2.35073 19.3826C1.90946 19.3385 1.62632 19.3092 1.41869 19.261C1.22495 19.2161 1.1637 19.1686 1.12927 19.1305L0.387821 19.8015ZM0 17.89C0 18.3068 -0.000971317 18.6672 0.03642 18.9574C0.0756359 19.2617 0.163704 19.5539 0.387821 19.8015L1.12927 19.1305C1.09484 19.0925 1.05364 19.0268 1.02822 18.8295C1.00097 18.6181 1 18.3335 1 17.89H0ZM0 15.11V17.89H1V15.11H0ZM0.387821 13.1985C0.163704 13.4461 0.0756359 13.7383 0.03642 14.0426C-0.000971317 14.3327 0 14.6932 0 15.11H1C1 14.6665 1.00097 14.3818 1.02822 14.1704C1.05364 13.9732 1.09484 13.9075 1.12927 13.8695L0.387821 13.1985ZM2.25124 12.6224C1.83658 12.6638 1.47777 12.6988 1.19281 12.7648C0.893945 12.8341 0.611939 12.9508 0.387822 13.1985L1.12927 13.8695C1.1637 13.8314 1.22495 13.7839 1.41869 13.739C1.62633 13.6908 1.90948 13.6615 2.35074 13.6174L2.25124 12.6224ZM3.40626 12.5069L2.25124 12.6224L2.35074 13.6174L3.50576 13.5019L3.40626 12.5069ZM5.67336 12.0152C5.65213 12.0665 5.59222 12.1681 5.20038 12.2666C4.80783 12.3654 4.23993 12.4235 3.40626 12.5069L3.50576 13.5019C4.30563 13.4219 4.96288 13.3575 5.44435 13.2364C5.92653 13.1151 6.38949 12.8994 6.59724 12.3979L5.67336 12.0152ZM4.41794 10.0645C4.94848 10.7129 5.30895 11.1556 5.51669 11.503C5.72406 11.8498 5.69459 11.964 5.67336 12.0152L6.59724 12.3979C6.80499 11.8963 6.63012 11.4165 6.37495 10.9898C6.12015 10.5637 5.70093 10.0534 5.1919 9.43123L4.41794 10.0645ZM3.68265 9.16578L4.41794 10.0645L5.1919 9.43123L4.45661 8.53254L3.68265 9.16578ZM2.77238 7.44078C2.75574 7.77437 2.87262 8.0563 3.03495 8.31663C3.18973 8.56485 3.41876 8.84325 3.68265 9.16578L4.45661 8.53254C4.17579 8.18932 3.99628 7.96839 3.8835 7.78752C3.77828 7.61876 3.76858 7.54184 3.77114 7.49059L2.77238 7.44078ZM3.84978 5.81492C3.5551 6.10959 3.29951 6.36381 3.1208 6.5954C2.93337 6.83829 2.78901 7.10719 2.77238 7.44078L3.77114 7.49059C3.77369 7.43935 3.79099 7.36377 3.91249 7.20632C4.04271 7.03757 4.2433 6.8356 4.55688 6.52202L3.84978 5.81492ZM5.81557 3.84913L3.84978 5.81492L4.55688 6.52202L6.52267 4.55623L5.81557 3.84913ZM7.44143 2.77173C7.10784 2.78836 6.83894 2.93272 6.59605 3.12015C6.36446 3.29886 6.11024 3.55445 5.81557 3.84913L6.52267 4.55623C6.83625 4.24265 7.03822 4.04206 7.20697 3.91184C7.36442 3.79034 7.44 3.77304 7.49124 3.77048L7.44143 2.77173ZM9.16643 3.682C8.8439 3.41811 8.56551 3.18908 8.31729 3.0343C8.05695 2.87197 7.77502 2.75509 7.44143 2.77173L7.49124 3.77048C7.54249 3.76793 7.61942 3.77762 7.78817 3.88285C7.96904 3.99563 8.18997 4.17514 8.53319 4.45596L9.16643 3.682ZM10.0646 4.41685L9.16643 3.682L8.53319 4.45596L9.43134 5.1908L10.0646 4.41685ZM12.0153 5.67227C11.9641 5.6935 11.8499 5.72297 11.5031 5.5156C11.1557 5.30786 10.713 4.94739 10.0646 4.41685L9.43134 5.1908C10.0535 5.69984 10.5638 6.11905 10.9899 6.37385C11.4166 6.62903 11.8965 6.8039 12.398 6.59615L12.0153 5.67227ZM12.507 3.40517C12.4236 4.23884 12.3655 4.80674 12.2667 5.19928C12.1682 5.59112 12.0666 5.65103 12.0153 5.67227L12.398 6.59615C12.8996 6.3884 13.1152 5.92543 13.2365 5.44326C13.3577 4.96179 13.422 4.30454 13.502 3.50467L12.507 3.40517ZM12.6224 2.25124L12.507 3.40517L13.502 3.50467L13.6174 2.35075L12.6224 2.25124ZM13.1985 0.387822C12.9508 0.611939 12.8341 0.893945 12.7648 1.19281C12.6988 1.47777 12.6638 1.83658 12.6224 2.25124L13.6174 2.35075C13.6615 1.90948 13.6908 1.62633 13.739 1.41869C13.7839 1.22495 13.8314 1.1637 13.8695 1.12927L13.1985 0.387822ZM15.11 0C14.6932 0 14.3327 -0.000971317 14.0426 0.03642C13.7383 0.0756359 13.4461 0.163704 13.1985 0.387821L13.8695 1.12927C13.9075 1.09484 13.9732 1.05364 14.1705 1.02822C14.3819 1.00097 14.6665 1 15.11 1V0ZM17.89 0H15.11V1H17.89V0ZM19.8015 0.387821C19.5539 0.163704 19.2617 0.0756359 18.9574 0.03642C18.6673 -0.000971317 18.3068 0 17.89 0V1C18.3335 1 18.6181 1.00097 18.8295 1.02822C19.0268 1.05364 19.0925 1.09484 19.1305 1.12927L19.8015 0.387821ZM20.3776 2.25122C20.3362 1.83656 20.3012 1.47777 20.2352 1.19281C20.1659 0.893941 20.0492 0.611937 19.8015 0.387821L19.1305 1.12927C19.1686 1.1637 19.2161 1.22495 19.261 1.41869C19.3092 1.62632 19.3385 1.90947 19.3826 2.35073L20.3776 2.25122ZM22.4 16.5C22.4 19.7585 19.7585 22.4 16.5 22.4V23.4C20.3107 23.4 23.4 20.3108 23.4 16.5H22.4ZM16.5 10.6C19.7585 10.6 22.4 13.2415 22.4 16.5H23.4C23.4 12.6892 20.3107 9.6 16.5 9.6V10.6ZM10.6 16.5C10.6 13.2415 13.2415 10.6 16.5 10.6V9.6C12.6892 9.6 9.59998 12.6892 9.59998 16.5H10.6ZM16.5 22.4C13.2415 22.4 10.6 19.7585 10.6 16.5H9.59998C9.59998 20.3108 12.6892 23.4 16.5 23.4V22.4Z" fill="white"/>
</svg>
