<svg width="40" height="40" viewBox="0 0 40 40" fill="none" xmlns="http://www.w3.org/2000/svg">
<circle cx="20" cy="20" r="4.5" stroke="#5DDAE4"/>
<path d="M16.6667 23.3333L10.8334 29.1667" stroke="#5DDAE4" stroke-linejoin="round"/>
<path d="M17.5 17.5L10 10" stroke="#5DDAE4" stroke-linejoin="round"/>
<path d="M31.1667 28.3333C31.1667 29.8981 29.8981 31.1667 28.3333 31.1667C26.7685 31.1667 25.5 29.8981 25.5 28.3333C25.5 26.7685 26.7685 25.5 28.3333 25.5C29.8981 25.5 31.1667 26.7685 31.1667 28.3333Z" stroke="#5DDAE4"/>
<path d="M36.1667 20C36.1667 21.5648 34.8981 22.8333 33.3333 22.8333C31.7685 22.8333 30.5 21.5648 30.5 20C30.5 18.4352 31.7685 17.1667 33.3333 17.1667C34.8981 17.1667 36.1667 18.4352 36.1667 20Z" stroke="#5DDAE4"/>
<path d="M30.8333 20H24.1666" stroke="#5DDAE4" stroke-linejoin="round"/>
<path d="M23.3334 23.3333L26.6667 26.6667" stroke="#5DDAE4" stroke-linejoin="round"/>
<circle cx="31.6666" cy="8.33334" r="4.5" stroke="#5DDAE4"/>
<path d="M28.3334 11.6667L23.3334 16.6667" stroke="#5DDAE4" stroke-linejoin="round"/>
<path d="M11.1667 8.33333C11.1667 9.89814 9.89814 11.1667 8.33333 11.1667C6.76853 11.1667 5.5 9.89814 5.5 8.33333C5.5 6.76853 6.76853 5.5 8.33333 5.5C9.89814 5.5 11.1667 6.76853 11.1667 8.33333Z" stroke="#5DDAE4"/>
<circle cx="8.33337" cy="31.6667" r="4.5" stroke="#5DDAE4"/>
</svg>
